<svg xmlns="http://www.w3.org/2000/svg" version="1.1" xmlns:xlink="http://www.w3.org/1999/xlink" xmlns:svgjs="http://svgjs.dev/svgjs" viewBox="0 0 800 800" preserveAspectRatio="xMidYMid slice"><defs><pattern id="pppixelate-pattern" width="20" height="20" patternUnits="userSpaceOnUse" patternTransform="translate(0 0) scale(40) rotate(0)" shape-rendering="crispEdges">
    <rect width="1" height="1" x="9" y="0" fill="hsla(105, 100%, 16%, 1.00)"></rect><rect width="1" height="1" x="10" y="0" fill="hsla(105, 88%, 24%, 1.00)"></rect><rect width="1" height="1" x="8" y="1" fill="hsla(105, 100%, 16%, 1.00)"></rect><rect width="1" height="1" x="9" y="1" fill="hsla(105, 100%, 16%, 1.00)"></rect><rect width="1" height="1" x="10" y="1" fill="hsla(105, 88%, 24%, 1.00)"></rect><rect width="1" height="1" x="11" y="1" fill="hsla(105, 88%, 24%, 1.00)"></rect><rect width="1" height="1" x="7" y="2" fill="hsl(105, 69%, 30%)"></rect><rect width="1" height="1" x="8" y="2" fill="hsla(105, 100%, 16%, 1.00)"></rect><rect width="1" height="1" x="9" y="2" fill="hsla(105, 100%, 16%, 1.00)"></rect><rect width="1" height="1" x="10" y="2" fill="hsla(105, 100%, 16%, 1.00)"></rect><rect width="1" height="1" x="11" y="2" fill="hsla(105, 100%, 16%, 1.00)"></rect><rect width="1" height="1" x="12" y="2" fill="hsl(105, 69%, 30%)"></rect><rect width="1" height="1" x="8" y="3" fill="hsl(105, 69%, 30%)"></rect><rect width="1" height="1" x="9" y="3" fill="hsla(105, 91%, 21%, 1.00)"></rect><rect width="1" height="1" x="10" y="3" fill="hsla(105, 100%, 16%, 1.00)"></rect><rect width="1" height="1" x="11" y="3" fill="hsl(105, 69%, 30%)"></rect><rect width="1" height="1" x="6" y="4" fill="hsla(105, 91%, 21%, 1.00)"></rect><rect width="1" height="1" x="7" y="4" fill="hsla(105, 91%, 21%, 1.00)"></rect><rect width="1" height="1" x="8" y="4" fill="hsl(105, 69%, 30%)"></rect><rect width="1" height="1" x="9" y="4" fill="hsl(105, 69%, 30%)"></rect><rect width="1" height="1" x="10" y="4" fill="hsl(105, 69%, 30%)"></rect><rect width="1" height="1" x="11" y="4" fill="hsl(105, 69%, 30%)"></rect><rect width="1" height="1" x="12" y="4" fill="hsl(105, 69%, 30%)"></rect><rect width="1" height="1" x="13" y="4" fill="hsl(105, 69%, 30%)"></rect><rect width="1" height="1" x="7" y="5" fill="hsla(105, 91%, 21%, 1.00)"></rect><rect width="1" height="1" x="8" y="5" fill="hsla(105, 91%, 21%, 1.00)"></rect><rect width="1" height="1" x="9" y="5" fill="hsla(105, 91%, 21%, 1.00)"></rect><rect width="1" height="1" x="10" y="5" fill="hsla(105, 91%, 21%, 1.00)"></rect><rect width="1" height="1" x="11" y="5" fill="hsl(105, 69%, 30%)"></rect><rect width="1" height="1" x="12" y="5" fill="hsl(105, 69%, 30%)"></rect><rect width="1" height="1" x="5" y="6" fill="hsla(105, 77%, 24%, 1.00)"></rect><rect width="1" height="1" x="6" y="6" fill="hsla(105, 77%, 24%, 1.00)"></rect><rect width="1" height="1" x="7" y="6" fill="hsla(105, 77%, 24%, 1.00)"></rect><rect width="1" height="1" x="8" y="6" fill="hsl(105, 69%, 30%)"></rect><rect width="1" height="1" x="9" y="6" fill="hsl(105, 69%, 30%)"></rect><rect width="1" height="1" x="10" y="6" fill="hsl(105, 69%, 30%)"></rect><rect width="1" height="1" x="11" y="6" fill="hsl(105, 69%, 30%)"></rect><rect width="1" height="1" x="12" y="6" fill="hsl(105, 69%, 30%)"></rect><rect width="1" height="1" x="13" y="6" fill="hsla(105, 77%, 24%, 1.00)"></rect><rect width="1" height="1" x="14" y="6" fill="hsla(105, 77%, 24%, 1.00)"></rect><rect width="1" height="1" x="6" y="7" fill="hsla(105, 77%, 24%, 1.00)"></rect><rect width="1" height="1" x="7" y="7" fill="hsla(105, 77%, 24%, 1.00)"></rect><rect width="1" height="1" x="8" y="7" fill="hsla(105, 77%, 24%, 1.00)"></rect><rect width="1" height="1" x="9" y="7" fill="hsl(105, 69%, 30%)"></rect><rect width="1" height="1" x="10" y="7" fill="hsl(105, 69%, 30%)"></rect><rect width="1" height="1" x="11" y="7" fill="hsla(105, 81%, 18%, 1.00)"></rect><rect width="1" height="1" x="12" y="7" fill="hsla(105, 77%, 24%, 1.00)"></rect><rect width="1" height="1" x="13" y="7" fill="hsla(105, 77%, 24%, 1.00)"></rect><rect width="1" height="1" x="4" y="8" fill="hsl(105, 69%, 30%)"></rect><rect width="1" height="1" x="5" y="8" fill="hsl(105, 69%, 30%)"></rect><rect width="1" height="1" x="6" y="8" fill="hsla(105, 91%, 21%, 1.00)"></rect><rect width="1" height="1" x="7" y="8" fill="hsla(105, 91%, 21%, 1.00)"></rect><rect width="1" height="1" x="8" y="8" fill="hsla(105, 77%, 24%, 1.00)"></rect><rect width="1" height="1" x="9" y="8" fill="hsla(105, 77%, 24%, 1.00)"></rect><rect width="1" height="1" x="10" y="8" fill="hsla(105, 77%, 24%, 1.00)"></rect><rect width="1" height="1" x="11" y="8" fill="hsla(105, 77%, 24%, 1.00)"></rect><rect width="1" height="1" x="12" y="8" fill="hsla(105, 91%, 21%, 1.00)"></rect><rect width="1" height="1" x="13" y="8" fill="hsl(105, 69%, 30%)"></rect><rect width="1" height="1" x="14" y="8" fill="hsl(105, 69%, 30%)"></rect><rect width="1" height="1" x="15" y="8" fill="hsl(105, 69%, 30%)"></rect><rect width="1" height="1" x="5" y="9" fill="hsl(105, 69%, 30%)"></rect><rect width="1" height="1" x="6" y="9" fill="hsl(105, 69%, 30%)"></rect><rect width="1" height="1" x="7" y="9" fill="hsla(105, 91%, 21%, 1.00)"></rect><rect width="1" height="1" x="8" y="9" fill="hsla(105, 91%, 21%, 1.00)"></rect><rect width="1" height="1" x="9" y="9" fill="hsla(105, 91%, 21%, 1.00)"></rect><rect width="1" height="1" x="10" y="9" fill="hsla(105, 91%, 21%, 1.00)"></rect><rect width="1" height="1" x="11" y="9" fill="hsla(105, 91%, 21%, 1.00)"></rect><rect width="1" height="1" x="12" y="9" fill="hsla(105, 91%, 21%, 1.00)"></rect><rect width="1" height="1" x="13" y="9" fill="hsl(105, 69%, 30%)"></rect><rect width="1" height="1" x="14" y="9" fill="hsl(105, 69%, 30%)"></rect><rect width="1" height="1" x="4" y="10" fill="hsla(105, 84%, 25%, 1.00)"></rect><rect width="1" height="1" x="5" y="10" fill="hsla(105, 84%, 25%, 1.00)"></rect><rect width="1" height="1" x="6" y="10" fill="hsl(105, 69%, 30%)"></rect><rect width="1" height="1" x="7" y="10" fill="hsl(105, 69%, 30%)"></rect><rect width="1" height="1" x="8" y="10" fill="hsl(105, 69%, 30%)"></rect><rect width="1" height="1" x="9" y="10" fill="hsl(105, 69%, 30%)"></rect><rect width="1" height="1" x="10" y="10" fill="hsl(105, 69%, 30%)"></rect><rect width="1" height="1" x="11" y="10" fill="hsl(105, 69%, 30%)"></rect><rect width="1" height="1" x="12" y="10" fill="hsl(105, 69%, 30%)"></rect><rect width="1" height="1" x="13" y="10" fill="hsl(105, 69%, 30%)"></rect><rect width="1" height="1" x="14" y="10" fill="hsl(105, 69%, 30%)"></rect><rect width="1" height="1" x="15" y="10" fill="hsl(105, 69%, 30%)"></rect><rect width="1" height="1" x="4" y="11" fill="hsla(105, 84%, 25%, 1.00)"></rect><rect width="1" height="1" x="5" y="11" fill="hsla(105, 84%, 25%, 1.00)"></rect><rect width="1" height="1" x="6" y="11" fill="hsla(105, 84%, 25%, 1.00)"></rect><rect width="1" height="1" x="7" y="11" fill="hsla(105, 84%, 25%, 1.00)"></rect><rect width="1" height="1" x="8" y="11" fill="hsla(105, 84%, 25%, 1.00)"></rect><rect width="1" height="1" x="9" y="11" fill="hsla(105, 84%, 25%, 1.00)"></rect><rect width="1" height="1" x="10" y="11" fill="hsla(105, 84%, 25%, 1.00)"></rect><rect width="1" height="1" x="11" y="11" fill="hsla(105, 84%, 25%, 1.00)"></rect><rect width="1" height="1" x="12" y="11" fill="hsl(105, 69%, 30%)"></rect><rect width="1" height="1" x="13" y="11" fill="hsl(105, 69%, 30%)"></rect><rect width="1" height="1" x="14" y="11" fill="hsl(105, 69%, 30%)"></rect><rect width="1" height="1" x="15" y="11" fill="hsla(105, 84%, 25%, 1.00)"></rect><rect width="1" height="1" x="5" y="12" fill="hsla(105, 91%, 21%, 1.00)"></rect><rect width="1" height="1" x="6" y="12" fill="hsla(105, 91%, 21%, 1.00)"></rect><rect width="1" height="1" x="7" y="12" fill="hsla(105, 91%, 21%, 1.00)"></rect><rect width="1" height="1" x="8" y="12" fill="hsla(105, 84%, 25%, 1.00)"></rect><rect width="1" height="1" x="9" y="12" fill="hsla(105, 84%, 25%, 1.00)"></rect><rect width="1" height="1" x="10" y="12" fill="hsla(105, 84%, 25%, 1.00)"></rect><rect width="1" height="1" x="11" y="12" fill="hsla(105, 84%, 25%, 1.00)"></rect><rect width="1" height="1" x="12" y="12" fill="hsla(105, 84%, 25%, 1.00)"></rect><rect width="1" height="1" x="13" y="12" fill="hsla(105, 84%, 25%, 1.00)"></rect><rect width="1" height="1" x="14" y="12" fill="hsla(105, 84%, 25%, 1.00)"></rect><rect width="1" height="1" x="4" y="13" fill="hsla(105, 100%, 23%, 1.00)"></rect><rect width="1" height="1" x="5" y="13" fill="hsla(105, 100%, 23%, 1.00)"></rect><rect width="1" height="1" x="6" y="13" fill="hsla(105, 91%, 21%, 1.00)"></rect><rect width="1" height="1" x="7" y="13" fill="hsla(105, 91%, 21%, 1.00)"></rect><rect width="1" height="1" x="8" y="13" fill="hsla(105, 91%, 21%, 1.00)"></rect><rect width="1" height="1" x="9" y="13" fill="hsla(105, 100%, 23%, 1.00)"></rect><rect width="1" height="1" x="10" y="13" fill="hsla(105, 100%, 23%, 1.00)"></rect><rect width="1" height="1" x="11" y="13" fill="hsla(105, 100%, 23%, 1.00)"></rect><rect width="1" height="1" x="12" y="13" fill="hsla(105, 100%, 23%, 1.00)"></rect><rect width="1" height="1" x="13" y="13" fill="hsla(105, 100%, 23%, 1.00)"></rect><rect width="1" height="1" x="14" y="13" fill="hsl(105, 69%, 30%)"></rect><rect width="1" height="1" x="15" y="13" fill="hsl(105, 69%, 30%)"></rect><rect width="1" height="1" x="5" y="14" fill="hsla(105, 100%, 23%, 1.00)"></rect><rect width="1" height="1" x="6" y="14" fill="hsla(105, 100%, 23%, 1.00)"></rect><rect width="1" height="1" x="7" y="14" fill="hsla(105, 100%, 23%, 1.00)"></rect><rect width="1" height="1" x="8" y="14" fill="hsla(105, 100%, 23%, 1.00)"></rect><rect width="1" height="1" x="9" y="14" fill="hsl(105, 69%, 30%)"></rect><rect width="1" height="1" x="10" y="14" fill="hsl(105, 69%, 30%)"></rect><rect width="1" height="1" x="11" y="14" fill="hsl(105, 69%, 30%)"></rect><rect width="1" height="1" x="12" y="14" fill="hsl(105, 69%, 30%)"></rect><rect width="1" height="1" x="13" y="14" fill="hsl(105, 69%, 30%)"></rect><rect width="1" height="1" x="14" y="14" fill="hsl(105, 69%, 30%)"></rect><rect width="1" height="1" x="7" y="15" fill="hsla(105, 100%, 23%, 1.00)"></rect><rect width="1" height="1" x="8" y="15" fill="hsla(105, 100%, 23%, 1.00)"></rect><rect width="1" height="1" x="9" y="15" fill="hsla(105, 100%, 23%, 1.00)"></rect><rect width="1" height="1" x="10" y="15" fill="hsl(105, 69%, 30%)"></rect><rect width="1" height="1" x="11" y="15" fill="hsl(105, 69%, 30%)"></rect><rect width="1" height="1" x="12" y="15" fill="hsl(105, 69%, 30%)"></rect><rect width="1" height="1" x="9" y="16" fill="hsla(30, 100%, 28%, 1.00)"></rect><rect width="1" height="1" x="10" y="16" fill="hsla(30, 98%, 27%, 1.00)"></rect><rect width="1" height="1" x="9" y="17" fill="hsla(30, 100%, 28%, 1.00)"></rect><rect width="1" height="1" x="10" y="17" fill="hsl(30, 100%, 40%)"></rect><rect width="1" height="1" x="9" y="18" fill="hsla(30, 100%, 28%, 1.00)"></rect><rect width="1" height="1" x="10" y="18" fill="hsl(30, 100%, 40%)"></rect>
  </pattern></defs><rect width="100%" height="100%" fill="url(#pppixelate-pattern)"></rect></svg>