<svg xmlns="http://www.w3.org/2000/svg" version="1.1" xmlns:xlink="http://www.w3.org/1999/xlink" xmlns:svgjs="http://svgjs.dev/svgjs" viewBox="0 0 800 800" preserveAspectRatio="xMidYMid slice"><defs><pattern id="pppixelate-pattern" width="20" height="20" patternUnits="userSpaceOnUse" patternTransform="translate(0 0) scale(40) rotate(0)" shape-rendering="crispEdges">
    <rect width="1" height="1" x="11" y="2" fill="hsl(30, 100%, 40%)"></rect><rect width="1" height="1" x="12" y="2" fill="hsl(30, 100%, 40%)"></rect><rect width="1" height="1" x="13" y="2" fill="hsl(30, 100%, 40%)"></rect><rect width="1" height="1" x="14" y="2" fill="hsl(30, 100%, 40%)"></rect><rect width="1" height="1" x="9" y="3" fill="hsl(30, 100%, 40%)"></rect><rect width="1" height="1" x="10" y="3" fill="hsl(30, 100%, 40%)"></rect><rect width="1" height="1" x="11" y="3" fill="hsla(30, 47%, 40%, 1.00)"></rect><rect width="1" height="1" x="12" y="3" fill="hsla(30, 100%, 34%, 1.00)"></rect><rect width="1" height="1" x="13" y="3" fill="hsla(30, 29%, 82%, 1.00)"></rect><rect width="1" height="1" x="14" y="3" fill="hsla(30, 29%, 82%, 1.00)"></rect><rect width="1" height="1" x="15" y="3" fill="hsl(30, 100%, 40%)"></rect><rect width="1" height="1" x="8" y="4" fill="hsl(30, 100%, 40%)"></rect><rect width="1" height="1" x="9" y="4" fill="hsla(30, 47%, 40%, 1.00)"></rect><rect width="1" height="1" x="10" y="4" fill="hsla(30, 100%, 34%, 1.00)"></rect><rect width="1" height="1" x="11" y="4" fill="hsla(30, 50%, 68%, 1.00)"></rect><rect width="1" height="1" x="12" y="4" fill="hsla(30, 50%, 68%, 1.00)"></rect><rect width="1" height="1" x="13" y="4" fill="hsla(30, 50%, 68%, 1.00)"></rect><rect width="1" height="1" x="14" y="4" fill="hsla(30, 29%, 82%, 1.00)"></rect><rect width="1" height="1" x="16" y="4" fill="hsl(30, 100%, 40%)"></rect><rect width="1" height="1" x="7" y="5" fill="hsl(30, 100%, 40%)"></rect><rect width="1" height="1" x="8" y="5" fill="hsla(30, 47%, 39%, 1.00)"></rect><rect width="1" height="1" x="9" y="5" fill="hsla(30, 55%, 62%, 1.00)"></rect><rect width="1" height="1" x="10" y="5" fill="hsla(30, 55%, 62%, 1.00)"></rect><rect width="1" height="1" x="11" y="5" fill="hsla(30, 50%, 68%, 1.00)"></rect><rect width="1" height="1" x="12" y="5" fill="hsla(30, 50%, 68%, 1.00)"></rect><rect width="1" height="1" x="13" y="5" fill="hsla(30, 50%, 68%, 1.00)"></rect><rect width="1" height="1" x="15" y="5" fill="hsla(30, 29%, 82%, 1.00)"></rect><rect width="1" height="1" x="16" y="5" fill="hsl(30, 100%, 40%)"></rect><rect width="1" height="1" x="6" y="6" fill="hsl(30, 100%, 40%)"></rect><rect width="1" height="1" x="7" y="6" fill="hsla(30, 47%, 39%, 1.00)"></rect><rect width="1" height="1" x="8" y="6" fill="hsla(30, 58%, 65%, 1.00)"></rect><rect width="1" height="1" x="9" y="6" fill="hsla(30, 58%, 65%, 1.00)"></rect><rect width="1" height="1" x="10" y="6" fill="hsla(30, 55%, 62%, 1.00)"></rect><rect width="1" height="1" x="11" y="6" fill="hsla(30, 55%, 62%, 1.00)"></rect><rect width="1" height="1" x="12" y="6" fill="hsla(30, 50%, 68%, 1.00)"></rect><rect width="1" height="1" x="13" y="6" fill="hsla(30, 50%, 68%, 1.00)"></rect><rect width="1" height="1" x="14" y="6" fill="hsla(30, 29%, 82%, 1.00)"></rect><rect width="1" height="1" x="15" y="6" fill="hsla(30, 29%, 82%, 1.00)"></rect><rect width="1" height="1" x="16" y="6" fill="hsla(30, 100%, 27%, 1.00)"></rect><rect width="1" height="1" x="5" y="7" fill="hsl(30, 100%, 40%)"></rect><rect width="1" height="1" x="6" y="7" fill="hsla(30, 58%, 65%, 1.00)"></rect><rect width="1" height="1" x="7" y="7" fill="hsla(30, 58%, 65%, 1.00)"></rect><rect width="1" height="1" x="8" y="7" fill="hsla(30, 58%, 65%, 1.00)"></rect><rect width="1" height="1" x="9" y="7" fill="hsla(30, 58%, 65%, 1.00)"></rect><rect width="1" height="1" x="10" y="7" fill="hsla(30, 58%, 65%, 1.00)"></rect><rect width="1" height="1" x="11" y="7" fill="hsla(30, 55%, 62%, 1.00)"></rect><rect width="1" height="1" x="12" y="7" fill="hsla(30, 50%, 68%, 1.00)"></rect><rect width="1" height="1" x="13" y="7" fill="hsla(30, 50%, 68%, 1.00)"></rect><rect width="1" height="1" x="14" y="7" fill="hsla(30, 50%, 68%, 1.00)"></rect><rect width="1" height="1" x="15" y="7" fill="hsla(30, 50%, 68%, 1.00)"></rect><rect width="1" height="1" x="16" y="7" fill="hsla(30, 100%, 27%, 1.00)"></rect><rect width="1" height="1" x="4" y="8" fill="hsl(30, 100%, 40%)"></rect><rect width="1" height="1" x="5" y="8" fill="hsla(30, 47%, 58%, 1.00)"></rect><rect width="1" height="1" x="6" y="8" fill="hsla(30, 47%, 58%, 1.00)"></rect><rect width="1" height="1" x="7" y="8" fill="hsla(30, 47%, 58%, 1.00)"></rect><rect width="1" height="1" x="8" y="8" fill="hsla(30, 47%, 58%, 1.00)"></rect><rect width="1" height="1" x="9" y="8" fill="hsla(30, 58%, 65%, 1.00)"></rect><rect width="1" height="1" x="10" y="8" fill="hsla(30, 58%, 65%, 1.00)"></rect><rect width="1" height="1" x="11" y="8" fill="hsla(30, 57%, 66%, 1.00)"></rect><rect width="1" height="1" x="12" y="8" fill="hsla(30, 50%, 68%, 1.00)"></rect><rect width="1" height="1" x="13" y="8" fill="hsla(30, 50%, 68%, 1.00)"></rect><rect width="1" height="1" x="14" y="8" fill="hsla(30, 50%, 68%, 1.00)"></rect><rect width="1" height="1" x="15" y="8" fill="hsla(30, 44%, 43%, 1.00)"></rect><rect width="1" height="1" x="16" y="8" fill="hsla(30, 100%, 27%, 1.00)"></rect><rect width="1" height="1" x="4" y="9" fill="hsl(30, 100%, 40%)"></rect><rect width="1" height="1" x="5" y="9" fill="hsla(30, 53%, 45%, 1.00)"></rect><rect width="1" height="1" x="6" y="9" fill="hsla(30, 53%, 45%, 1.00)"></rect><rect width="1" height="1" x="7" y="9" fill="hsla(30, 53%, 45%, 1.00)"></rect><rect width="1" height="1" x="8" y="9" fill="hsla(30, 47%, 58%, 1.00)"></rect><rect width="1" height="1" x="9" y="9" fill="hsla(30, 47%, 58%, 1.00)"></rect><rect width="1" height="1" x="10" y="9" fill="hsla(30, 47%, 58%, 1.00)"></rect><rect width="1" height="1" x="11" y="9" fill="hsla(30, 58%, 65%, 1.00)"></rect><rect width="1" height="1" x="12" y="9" fill="hsla(30, 58%, 65%, 1.00)"></rect><rect width="1" height="1" x="13" y="9" fill="hsla(30, 58%, 65%, 1.00)"></rect><rect width="1" height="1" x="14" y="9" fill="hsla(30, 44%, 43%, 1.00)"></rect><rect width="1" height="1" x="15" y="9" fill="hsla(30, 100%, 27%, 1.00)"></rect><rect width="1" height="1" x="4" y="10" fill="hsla(30, 100%, 27%, 1.00)"></rect><rect width="1" height="1" x="5" y="10" fill="hsla(30, 44%, 43%, 1.00)"></rect><rect width="1" height="1" x="6" y="10" fill="hsla(30, 44%, 43%, 1.00)"></rect><rect width="1" height="1" x="7" y="10" fill="hsla(30, 53%, 45%, 1.00)"></rect><rect width="1" height="1" x="8" y="10" fill="hsla(30, 53%, 45%, 1.00)"></rect><rect width="1" height="1" x="9" y="10" fill="hsla(30, 53%, 45%, 1.00)"></rect><rect width="1" height="1" x="10" y="10" fill="hsla(30, 47%, 58%, 1.00)"></rect><rect width="1" height="1" x="11" y="10" fill="hsla(30, 47%, 58%, 1.00)"></rect><rect width="1" height="1" x="12" y="10" fill="hsla(30, 47%, 58%, 1.00)"></rect><rect width="1" height="1" x="13" y="10" fill="hsla(30, 48%, 43%, 1.00)"></rect><rect width="1" height="1" x="14" y="10" fill="hsla(30, 100%, 27%, 1.00)"></rect><rect width="1" height="1" x="4" y="11" fill="hsla(30, 100%, 27%, 1.00)"></rect><rect width="1" height="1" x="5" y="11" fill="hsla(30, 36%, 35%, 1.00)"></rect><rect width="1" height="1" x="6" y="11" fill="hsla(30, 44%, 43%, 1.00)"></rect><rect width="1" height="1" x="7" y="11" fill="hsla(30, 44%, 43%, 1.00)"></rect><rect width="1" height="1" x="8" y="11" fill="hsla(30, 48%, 43%, 1.00)"></rect><rect width="1" height="1" x="9" y="11" fill="hsla(30, 48%, 43%, 1.00)"></rect><rect width="1" height="1" x="10" y="11" fill="hsla(30, 48%, 43%, 1.00)"></rect><rect width="1" height="1" x="11" y="11" fill="hsla(30, 48%, 43%, 1.00)"></rect><rect width="1" height="1" x="12" y="11" fill="hsla(30, 48%, 43%, 1.00)"></rect><rect width="1" height="1" x="13" y="11" fill="hsla(30, 100%, 27%, 1.00)"></rect><rect width="1" height="1" x="5" y="12" fill="hsla(30, 100%, 27%, 1.00)"></rect><rect width="1" height="1" x="6" y="12" fill="hsla(30, 36%, 35%, 1.00)"></rect><rect width="1" height="1" x="7" y="12" fill="hsla(30, 44%, 43%, 1.00)"></rect><rect width="1" height="1" x="8" y="12" fill="hsla(30, 44%, 43%, 1.00)"></rect><rect width="1" height="1" x="9" y="12" fill="hsla(30, 48%, 43%, 1.00)"></rect><rect width="1" height="1" x="10" y="12" fill="hsla(30, 48%, 43%, 1.00)"></rect><rect width="1" height="1" x="11" y="12" fill="hsla(30, 100%, 27%, 1.00)"></rect><rect width="1" height="1" x="12" y="12" fill="hsla(30, 100%, 27%, 1.00)"></rect><rect width="1" height="1" x="6" y="13" fill="hsla(30, 100%, 27%, 1.00)"></rect><rect width="1" height="1" x="7" y="13" fill="hsla(30, 100%, 27%, 1.00)"></rect><rect width="1" height="1" x="8" y="13" fill="hsla(30, 100%, 27%, 1.00)"></rect><rect width="1" height="1" x="9" y="13" fill="hsla(30, 100%, 27%, 1.00)"></rect><rect width="1" height="1" x="10" y="13" fill="hsla(30, 100%, 27%, 1.00)"></rect>
  </pattern></defs><rect width="100%" height="100%" fill="url(#pppixelate-pattern)"></rect></svg>