<svg xmlns="http://www.w3.org/2000/svg" version="1.1" xmlns:xlink="http://www.w3.org/1999/xlink" xmlns:svgjs="http://svgjs.dev/svgjs" viewBox="0 0 800 800" preserveAspectRatio="xMidYMid slice"><defs><pattern id="pppixelate-pattern" width="20" height="20" patternUnits="userSpaceOnUse" patternTransform="translate(0 0) scale(40) rotate(0)" shape-rendering="crispEdges">
    <rect width="1" height="1" x="9" y="1" fill="rgba(254, 237, 154, 1.00)"></rect><rect width="1" height="1" x="10" y="1" fill="rgba(254, 237, 154, 1.00)"></rect><rect width="1" height="1" x="8" y="2" fill="rgba(245, 166, 35, 1.00)"></rect><rect width="1" height="1" x="9" y="2" fill="rgba(215, 134, 0, 1.00)"></rect><rect width="1" height="1" x="10" y="2" fill="rgba(254, 237, 154, 1.00)"></rect><rect width="1" height="1" x="11" y="2" fill="rgba(254, 237, 154, 1.00)"></rect><rect width="1" height="1" x="7" y="3" fill="rgba(245, 166, 35, 1.00)"></rect><rect width="1" height="1" x="8" y="3" fill="rgba(215, 134, 0, 1.00)"></rect><rect width="1" height="1" x="9" y="3" fill="rgba(215, 134, 0, 1.00)"></rect><rect width="1" height="1" x="10" y="3" fill="hsl(50, 98%, 50%)"></rect><rect width="1" height="1" x="11" y="3" fill="hsl(50, 98%, 50%)"></rect><rect width="1" height="1" x="12" y="3" fill="hsl(50, 98%, 50%)"></rect><rect width="1" height="1" x="6" y="5" fill="hsl(50, 98%, 50%)"></rect><rect width="1" height="1" x="7" y="5" fill="hsl(50, 98%, 50%)"></rect><rect width="1" height="1" x="8" y="5" fill="hsl(50, 98%, 50%)"></rect><rect width="1" height="1" x="9" y="5" fill="hsl(50, 98%, 50%)"></rect><rect width="1" height="1" x="10" y="5" fill="hsl(50, 98%, 50%)"></rect><rect width="1" height="1" x="11" y="5" fill="hsl(50, 98%, 50%)"></rect><rect width="1" height="1" x="12" y="5" fill="hsl(50, 98%, 50%)"></rect><rect width="1" height="1" x="13" y="5" fill="hsl(50, 98%, 50%)"></rect><rect width="1" height="1" x="5" y="6" fill="hsl(50, 98%, 50%)"></rect><rect width="1" height="1" x="6" y="6" fill="hsl(50, 98%, 50%)"></rect><rect width="1" height="1" x="7" y="6" fill="rgba(245, 166, 35, 1.00)"></rect><rect width="1" height="1" x="8" y="6" fill="rgba(245, 166, 35, 1.00)"></rect><rect width="1" height="1" x="9" y="6" fill="rgba(215, 134, 0, 1.00)"></rect><rect width="1" height="1" x="10" y="6" fill="rgba(233, 207, 80, 1.00)"></rect><rect width="1" height="1" x="11" y="6" fill="rgba(233, 207, 80, 1.00)"></rect><rect width="1" height="1" x="12" y="6" fill="rgba(233, 207, 80, 1.00)"></rect><rect width="1" height="1" x="13" y="6" fill="hsl(50, 98%, 70%)"></rect><rect width="1" height="1" x="14" y="6" fill="hsl(50, 98%, 50%)"></rect><rect width="1" height="1" x="3" y="7" fill="rgba(254, 237, 154, 1.00)"></rect><rect width="1" height="1" x="5" y="7" fill="hsl(50, 98%, 50%)"></rect><rect width="1" height="1" x="6" y="7" fill="rgba(245, 166, 35, 1.00)"></rect><rect width="1" height="1" x="7" y="7" fill="rgba(245, 166, 35, 1.00)"></rect><rect width="1" height="1" x="8" y="7" fill="rgba(215, 134, 0, 1.00)"></rect><rect width="1" height="1" x="9" y="7" fill="rgba(215, 134, 0, 1.00)"></rect><rect width="1" height="1" x="10" y="7" fill="rgba(233, 207, 80, 1.00)"></rect><rect width="1" height="1" x="11" y="7" fill="hsl(50, 98%, 70%)"></rect><rect width="1" height="1" x="12" y="7" fill="hsl(50, 98%, 70%)"></rect><rect width="1" height="1" x="13" y="7" fill="hsl(50, 98%, 70%)"></rect><rect width="1" height="1" x="14" y="7" fill="hsl(50, 98%, 50%)"></rect><rect width="1" height="1" x="16" y="7" fill="hsl(50, 98%, 50%)"></rect><rect width="1" height="1" x="2" y="8" fill="rgba(254, 237, 154, 1.00)"></rect><rect width="1" height="1" x="3" y="8" fill="rgba(254, 237, 154, 1.00)"></rect><rect width="1" height="1" x="5" y="8" fill="hsl(50, 98%, 50%)"></rect><rect width="1" height="1" x="6" y="8" fill="rgba(245, 166, 35, 1.00)"></rect><rect width="1" height="1" x="7" y="8" fill="rgba(215, 134, 0, 1.00)"></rect><rect width="1" height="1" x="8" y="8" fill="rgba(215, 134, 0, 1.00)"></rect><rect width="1" height="1" x="9" y="8" fill="rgba(233, 207, 80, 1.00)"></rect><rect width="1" height="1" x="10" y="8" fill="rgba(233, 207, 80, 1.00)"></rect><rect width="1" height="1" x="11" y="8" fill="hsl(50, 98%, 70%)"></rect><rect width="1" height="1" x="12" y="8" fill="hsl(50, 98%, 70%)"></rect><rect width="1" height="1" x="13" y="8" fill="hsl(50, 98%, 70%)"></rect><rect width="1" height="1" x="14" y="8" fill="hsl(50, 98%, 50%)"></rect><rect width="1" height="1" x="16" y="8" fill="hsl(50, 98%, 50%)"></rect><rect width="1" height="1" x="17" y="8" fill="rgba(254, 237, 154, 1.00)"></rect><rect width="1" height="1" x="1" y="9" fill="rgba(245, 166, 35, 1.00)"></rect><rect width="1" height="1" x="2" y="9" fill="rgba(215, 134, 0, 1.00)"></rect><rect width="1" height="1" x="3" y="9" fill="hsl(50, 98%, 50%)"></rect><rect width="1" height="1" x="5" y="9" fill="hsl(50, 98%, 50%)"></rect><rect width="1" height="1" x="6" y="9" fill="rgba(245, 166, 35, 1.00)"></rect><rect width="1" height="1" x="7" y="9" fill="rgba(215, 134, 0, 1.00)"></rect><rect width="1" height="1" x="8" y="9" fill="rgba(233, 207, 80, 1.00)"></rect><rect width="1" height="1" x="9" y="9" fill="rgba(233, 207, 80, 1.00)"></rect><rect width="1" height="1" x="10" y="9" fill="hsl(50, 98%, 70%)"></rect><rect width="1" height="1" x="11" y="9" fill="hsl(50, 98%, 70%)"></rect><rect width="1" height="1" x="12" y="9" fill="hsl(50, 98%, 70%)"></rect><rect width="1" height="1" x="13" y="9" fill="hsl(50, 98%, 70%)"></rect><rect width="1" height="1" x="14" y="9" fill="hsl(50, 98%, 50%)"></rect><rect width="1" height="1" x="16" y="9" fill="hsl(50, 98%, 50%)"></rect><rect width="1" height="1" x="17" y="9" fill="rgba(215, 134, 0, 1.00)"></rect><rect width="1" height="1" x="18" y="9" fill="rgba(254, 237, 154, 1.00)"></rect><rect width="1" height="1" x="1" y="10" fill="rgba(245, 166, 35, 1.00)"></rect><rect width="1" height="1" x="2" y="10" fill="rgba(215, 134, 0, 1.00)"></rect><rect width="1" height="1" x="3" y="10" fill="hsl(50, 98%, 50%)"></rect><rect width="1" height="1" x="5" y="10" fill="hsl(50, 98%, 50%)"></rect><rect width="1" height="1" x="6" y="10" fill="rgba(245, 166, 35, 1.00)"></rect><rect width="1" height="1" x="7" y="10" fill="rgba(215, 134, 0, 1.00)"></rect><rect width="1" height="1" x="8" y="10" fill="rgba(233, 207, 80, 1.00)"></rect><rect width="1" height="1" x="9" y="10" fill="hsl(50, 98%, 70%)"></rect><rect width="1" height="1" x="10" y="10" fill="hsl(50, 98%, 70%)"></rect><rect width="1" height="1" x="11" y="10" fill="hsl(50, 98%, 70%)"></rect><rect width="1" height="1" x="12" y="10" fill="hsl(50, 98%, 70%)"></rect><rect width="1" height="1" x="13" y="10" fill="hsl(50, 98%, 80%)"></rect><rect width="1" height="1" x="14" y="10" fill="hsl(50, 98%, 50%)"></rect><rect width="1" height="1" x="16" y="10" fill="rgba(215, 134, 0, 1.00)"></rect><rect width="1" height="1" x="17" y="10" fill="rgba(215, 134, 0, 1.00)"></rect><rect width="1" height="1" x="18" y="10" fill="rgba(245, 166, 35, 1.00)"></rect><rect width="1" height="1" x="2" y="11" fill="rgba(245, 166, 35, 1.00)"></rect><rect width="1" height="1" x="3" y="11" fill="hsl(50, 98%, 50%)"></rect><rect width="1" height="1" x="5" y="11" fill="hsl(50, 98%, 50%)"></rect><rect width="1" height="1" x="6" y="11" fill="rgba(245, 166, 35, 1.00)"></rect><rect width="1" height="1" x="7" y="11" fill="rgba(215, 134, 0, 1.00)"></rect><rect width="1" height="1" x="8" y="11" fill="rgba(233, 207, 80, 1.00)"></rect><rect width="1" height="1" x="9" y="11" fill="hsl(50, 98%, 70%)"></rect><rect width="1" height="1" x="10" y="11" fill="hsl(50, 98%, 70%)"></rect><rect width="1" height="1" x="11" y="11" fill="hsl(50, 98%, 70%)"></rect><rect width="1" height="1" x="12" y="11" fill="hsl(50, 98%, 80%)"></rect><rect width="1" height="1" x="13" y="11" fill="hsl(50, 98%, 80%)"></rect><rect width="1" height="1" x="14" y="11" fill="hsl(50, 98%, 50%)"></rect><rect width="1" height="1" x="16" y="11" fill="rgba(215, 134, 0, 1.00)"></rect><rect width="1" height="1" x="17" y="11" fill="rgba(245, 166, 35, 1.00)"></rect><rect width="1" height="1" x="3" y="12" fill="hsl(50, 98%, 50%)"></rect><rect width="1" height="1" x="5" y="12" fill="hsl(50, 98%, 50%)"></rect><rect width="1" height="1" x="6" y="12" fill="rgba(245, 166, 35, 1.00)"></rect><rect width="1" height="1" x="7" y="12" fill="rgba(215, 134, 0, 1.00)"></rect><rect width="1" height="1" x="8" y="12" fill="rgba(233, 207, 80, 1.00)"></rect><rect width="1" height="1" x="9" y="12" fill="rgba(233, 207, 80, 1.00)"></rect><rect width="1" height="1" x="10" y="12" fill="hsl(50, 98%, 70%)"></rect><rect width="1" height="1" x="11" y="12" fill="hsl(50, 98%, 70%)"></rect><rect width="1" height="1" x="12" y="12" fill="hsl(50, 98%, 80%)"></rect><rect width="1" height="1" x="13" y="12" fill="hsl(50, 98%, 80%)"></rect><rect width="1" height="1" x="14" y="12" fill="hsl(50, 98%, 50%)"></rect><rect width="1" height="1" x="16" y="12" fill="rgba(245, 166, 35, 1.00)"></rect><rect width="1" height="1" x="5" y="13" fill="hsl(50, 98%, 50%)"></rect><rect width="1" height="1" x="6" y="13" fill="hsl(50, 98%, 50%)"></rect><rect width="1" height="1" x="7" y="13" fill="rgba(245, 166, 35, 1.00)"></rect><rect width="1" height="1" x="8" y="13" fill="rgba(215, 134, 0, 1.00)"></rect><rect width="1" height="1" x="9" y="13" fill="rgba(233, 207, 80, 1.00)"></rect><rect width="1" height="1" x="10" y="13" fill="hsl(50, 98%, 70%)"></rect><rect width="1" height="1" x="11" y="13" fill="hsl(50, 98%, 70%)"></rect><rect width="1" height="1" x="12" y="13" fill="hsl(50, 98%, 80%)"></rect><rect width="1" height="1" x="13" y="13" fill="hsl(50, 98%, 50%)"></rect><rect width="1" height="1" x="14" y="13" fill="hsl(50, 98%, 50%)"></rect><rect width="1" height="1" x="6" y="14" fill="hsl(50, 98%, 50%)"></rect><rect width="1" height="1" x="7" y="14" fill="hsl(50, 98%, 50%)"></rect><rect width="1" height="1" x="8" y="14" fill="hsl(50, 98%, 50%)"></rect><rect width="1" height="1" x="9" y="14" fill="hsl(50, 98%, 50%)"></rect><rect width="1" height="1" x="10" y="14" fill="hsl(50, 98%, 50%)"></rect><rect width="1" height="1" x="11" y="14" fill="hsl(50, 98%, 50%)"></rect><rect width="1" height="1" x="12" y="14" fill="hsl(50, 98%, 50%)"></rect><rect width="1" height="1" x="13" y="14" fill="hsl(50, 98%, 50%)"></rect><rect width="1" height="1" x="7" y="16" fill="rgba(245, 166, 35, 1.00)"></rect><rect width="1" height="1" x="8" y="16" fill="rgba(215, 134, 0, 1.00)"></rect><rect width="1" height="1" x="9" y="16" fill="rgba(215, 134, 0, 1.00)"></rect><rect width="1" height="1" x="10" y="16" fill="hsl(50, 98%, 50%)"></rect><rect width="1" height="1" x="11" y="16" fill="hsl(50, 98%, 50%)"></rect><rect width="1" height="1" x="12" y="16" fill="hsl(50, 98%, 50%)"></rect><rect width="1" height="1" x="8" y="17" fill="rgba(245, 166, 35, 1.00)"></rect><rect width="1" height="1" x="9" y="17" fill="rgba(215, 134, 0, 1.00)"></rect><rect width="1" height="1" x="10" y="17" fill="rgba(215, 134, 0, 1.00)"></rect><rect width="1" height="1" x="11" y="17" fill="rgba(254, 237, 154, 1.00)"></rect><rect width="1" height="1" x="9" y="18" fill="rgba(245, 166, 35, 1.00)"></rect><rect width="1" height="1" x="10" y="18" fill="rgba(254, 237, 154, 1.00)"></rect>
  </pattern></defs><rect width="100%" height="100%" fill="url(#pppixelate-pattern)"></rect></svg>